# xmcd
#
# Track frame offsets: 
#        150
#        14614
#        30359
#        52083
#        74291
#        89452
#        113190
#        126227
#        143137
#        162059
#        186906
#
# Disc length: 2769 seconds
#
# Revision: 1
# Processed by: cddbd v1.5.2PL0 Copyright (c) Steve Scherf et al.
# Submitted via: ExactAudioCopy v1.3
#
DISCID=970acf0b
DTITLE=Antis - Anciu dainos
DYEAR=2007
DGENRE=Punk Rock
TTITLE0=CV
TTITLE1=Meldziu - beldziu
TTITLE2=Deme
TTITLE3=Senelis
TTITLE4=Rugpjucio 33
TTITLE5=Auksinis Buda
TTITLE6=Sustok akimirka
TTITLE7=Mes rimti!
TTITLE8=Burzujus
TTITLE9=Girtuoklis
TTITLE10=Jei kas
EXTD=YEAR: 2007
EXTT0=
EXTT1=
EXTT2=
EXTT3=
EXTT4=
EXTT5=
EXTT6=
EXTT7=
EXTT8=
EXTT9=
EXTT10=
PLAYORDER=
